<svg width="6" height="5" viewBox="0 0 6 5" fill="none" xmlns="http://www.w3.org/2000/svg">
<path d="M0.565424 2.72677L1.48191 1.13949C1.84337 0.513473 2.02409 0.200466 2.2669 0.0844872C2.47902 -0.0168393 2.72319 -0.0277352 2.9435 0.054294C3.19567 0.148185 3.40356 0.44385 3.81934 1.03518L4.93539 2.62246L4.9354 2.62247C5.43274 3.32979 5.68141 3.68346 5.66895 3.97795C5.65811 4.23438 5.53427 4.47285 5.33073 4.62922C5.09699 4.80879 4.66465 4.80879 3.79998 4.80879H1.76744C0.978484 4.80879 0.584008 4.80879 0.355972 4.64311C0.157069 4.49859 0.0288292 4.27647 0.00313532 4.03196C-0.0263219 3.75163 0.170927 3.41001 0.565424 2.72677Z" fill="#AECFE0"/>
</svg>
